<?xml version="1.0" encoding="UTF-8" standalone="no" ?>
<!DOCTYPE svg PUBLIC "-//W3C//DTD SVG 1.1//EN" "http://www.w3.org/Graphics/SVG/1.1/DTD/svg11.dtd">
<svg xmlns="http://www.w3.org/2000/svg" xmlns:xlink="http://www.w3.org/1999/xlink" version="1.1" width="1080" height="1080" viewBox="0 0 1080 1080" xml:space="preserve">
<desc>Created with Fabric.js 5.2.4</desc>
<defs>
</defs>
<g transform="matrix(1 0 0 1 540 540)" id="e8303ed3-b88b-48ca-98d9-cca88c9bf904"  >
<rect style="stroke: none; stroke-width: 1; stroke-dasharray: none; stroke-linecap: butt; stroke-dashoffset: 0; stroke-linejoin: miter; stroke-miterlimit: 4; fill: rgb(255,255,255); fill-rule: nonzero; opacity: 1; visibility: hidden;" vector-effect="non-scaling-stroke"  x="-540" y="-540" rx="0" ry="0" width="1080" height="1080" />
</g>
<g transform="matrix(1 0 0 1 540 540)" id="ed54d86a-d563-43f3-9a95-4c564ff8c7d9"  >
</g>
<g transform="matrix(1 0 0 1 540 540)" id="1c2a131f-02cf-42ee-ba8a-cea810024976"  >
<path style="stroke: rgb(29,185,84); stroke-width: 0; stroke-dasharray: none; stroke-linecap: butt; stroke-dashoffset: 0; stroke-linejoin: miter; stroke-miterlimit: 4; fill: rgb(29,185,84); fill-rule: nonzero; opacity: 1;" vector-effect="non-scaling-stroke"  transform=" translate(-480, 487)" d="M 480 -120 L 422 -172 Q 321 -263 255 -329 Q 189 -395 150 -447.5 Q 111 -500 95.5 -544 Q 80 -588 80 -634 Q 80 -728 143 -791 Q 206 -854 300 -854 Q 352 -854 399 -832 Q 446 -810 480 -770 Q 514 -810 561 -832 Q 608 -854 660 -854 Q 754 -854 817 -791 Q 880 -728 880 -634 Q 880 -588 864.5 -544 Q 849 -500 810 -447.5 Q 771 -395 705 -329 Q 639 -263 538 -172 L 480 -120 Z M 480 -228 Q 576 -314 638 -375.5 Q 700 -437 736 -482.5 Q 772 -528 786 -563.5 Q 800 -599 800 -634 Q 800 -694 760 -734 Q 720 -774 660 -774 Q 613 -774 573 -747.5 Q 533 -721 518 -680 L 442 -680 Q 427 -721 387 -747.5 Q 347 -774 300 -774 Q 240 -774 200 -734 Q 160 -694 160 -634 Q 160 -599 174 -563.5 Q 188 -528 224 -482.5 Q 260 -437 322 -375.5 Q 384 -314 480 -228 Z M 480 -501 Z" stroke-linecap="round" />
</g>
<g transform="matrix(NaN NaN NaN NaN 0 0)"  >
<g style=""   >
</g>
</g>
<g transform="matrix(NaN NaN NaN NaN 0 0)"  >
<g style=""   >
</g>
</g>
<g transform="matrix(NaN NaN NaN NaN 0 0)"  >
<g style=""   >
</g>
</g>
<g transform="matrix(NaN NaN NaN NaN 0 0)"  >
<g style=""   >
</g>
</g>
<g transform="matrix(9.86 0 0 9.76 533.66 548.65)" id="1bc7e40d-65ef-4c13-8b0b-36816f475671"  >
<path style="stroke: rgb(0,0,0); stroke-width: 0; stroke-dasharray: none; stroke-linecap: butt; stroke-dashoffset: 0; stroke-linejoin: miter; stroke-miterlimit: 4; fill: rgb(29,185,84); fill-rule: nonzero; opacity: 1;" vector-effect="non-scaling-stroke"  transform=" translate(-50, -50)" d="M 81.866 18.883 C 78.577 15.594 74.54 13.998999999999999 69.80799999999999 14.049 C 62.38099999999999 14.149 56.001999999999995 18.183999999999997 50.773999999999994 26.208 L 50.773999999999994 26.157999999999998 L 49.47599999999999 28.549 C 49.47599999999999 28.549 48.92999999999999 27.502 48.129999999999995 26.058 L 48.129999999999995 26.257 C 46.187 22.271 43.69799999999999 19.330000000000002 40.706999999999994 17.337000000000003 C 37.71699999999999 15.394000000000004 34.37899999999999 14.446000000000003 30.791999999999994 14.446000000000003 C 26.056999999999995 14.496000000000004 21.919999999999995 16.041000000000004 18.383999999999993 18.981 C 14.843999999999994 21.972 13.151999999999994 25.808 13.151999999999994 30.441000000000003 C 13.199999999999994 32.036 13.700999999999993 34.378 14.645999999999994 37.418000000000006 C 16.440999999999995 41.952000000000005 21.076999999999995 47.83200000000001 28.697999999999993 55.10600000000001 C 36.27199999999999 62.38100000000001 41.556 67.81200000000001 44.49499999999999 71.4 C 47.48499999999999 74.938 49.42899999999999 79.822 50.32499999999999 85.95100000000001 C 51.07399999999999 80.569 53.86099999999999 75.138 58.79599999999999 69.756 C 63.72999999999999 64.324 69.359 58.346000000000004 75.73899999999999 51.769000000000005 C 82.06599999999999 45.19200000000001 85.60199999999999 40.159000000000006 86.303 36.62100000000001 C 86.7 35.37600000000001 86.849 33.732000000000006 86.849 31.640000000000008 C 86.8 26.457 85.104 22.172 81.866 18.883 z" stroke-linecap="round" />
</g>
<g transform="matrix(NaN NaN NaN NaN 0 0)"  >
<g style=""   >
</g>
</g>
<g transform="matrix(NaN NaN NaN NaN 0 0)"  >
<g style=""   >
</g>
</g>
</svg>